<svg width="227" height="50" viewBox="0 0 227 50" fill="none" xmlns="http://www.w3.org/2000/svg">
<g clip-path="url(#clip0_14_122)">
<mask id="mask0_14_122" style="mask-type:luminance" maskUnits="userSpaceOnUse" x="0" y="0" width="227" height="50">
<path d="M226.301 0H0V49.5205H226.301V0Z" fill="white"/>
</mask>
<g mask="url(#mask0_14_122)">
<path d="M162.192 23.5619L163.699 13.4249C160.411 11.6441 155.822 10.1372 150.548 10.1372C140.137 10.1372 134.452 15.6167 134.452 22.6715C134.452 30.1372 141.233 32.329 145.891 33.9043C148.699 34.9317 150.891 35.6852 150.891 37.192C150.891 38.4249 149.452 39.5893 146.576 39.5893C142.397 39.5893 136.576 37.1921 132.808 33.8359L131.165 44.9317C135.069 47.8084 140.685 49.5208 146.644 49.5208C156.986 49.5208 162.877 44.4523 162.877 37.2606C162.877 29.7263 156.507 27.192 151.37 25.3427C148.493 24.3153 146.439 23.6989 146.439 22.2605C146.439 21.0276 147.877 20.0687 150.822 20.0687C155.069 20.0687 159.452 22.0551 162.192 23.5619Z" fill="#FF0000"/>
<path d="M30.2741 11.1646L29.5892 14.4523C27.6029 10.5482 21.7124 10.1372 18.5618 10.1372C8.69874 10.1372 0.0686035 19.5893 0.0686035 32.5345C0.0686035 42.9454 6.36998 49.5208 14.2467 49.5208C18.6303 49.5208 22.3974 48.4934 25.4796 44.8632L24.6576 48.4934H26.4385H37.0549L42.7398 11.0961H30.2741V11.1646ZM19.9316 37.055C15.685 37.055 12.4659 33.7674 12.4659 29.5893C12.4659 25.4797 15.7535 22.1235 19.9316 22.1235C24.0412 22.1235 27.3289 25.4797 27.3289 29.5893C27.3289 33.7674 24.0412 37.055 19.9316 37.055Z" fill="#FF0000"/>
<path d="M121.712 11.1646H120.411L119.726 14.4523C117.74 10.5482 111.849 10.1372 108.699 10.1372C98.8357 10.1372 90.2056 19.5893 90.2056 32.5345C90.2056 42.9454 96.5069 49.5208 104.384 49.5208C108.767 49.5208 112.534 48.4934 115.617 44.8632L114.795 48.4934H116.575H127.192L132.877 11.0961H121.712V11.1646ZM110.069 37.055C105.822 37.055 102.603 33.7674 102.603 29.5893C102.603 25.4797 105.89 22.1235 110.069 22.1235C114.178 22.1235 117.466 25.4797 117.466 29.5893C117.534 33.7674 114.178 37.055 110.069 37.055Z" fill="#FF0000"/>
<path d="M215.137 11.1646H213.836L213.151 14.4523C211.165 10.5482 205.274 10.1372 202.124 10.1372C192.261 10.1372 183.63 19.5893 183.63 32.5345C183.63 42.9454 189.932 49.5208 197.808 49.5208C202.192 49.5208 205.959 48.4934 209.041 44.8632L208.219 48.4934H210H220.617L226.302 11.0961H215.137V11.1646ZM203.493 37.055C199.247 37.055 196.028 33.7674 196.028 29.5893C196.028 25.4797 199.315 22.1235 203.493 22.1235C207.603 22.1235 210.891 25.4797 210.891 29.5893C210.891 33.7674 207.603 37.055 203.493 37.055Z" fill="#FF0000"/>
<path d="M54.726 12.5341C58.1684 12.5341 60.9589 9.74357 60.9589 6.30124C60.9589 2.85892 58.1684 0.0683594 54.726 0.0683594C51.2837 0.0683594 48.4932 2.85892 48.4932 6.30124C48.4932 9.74357 51.2837 12.5341 54.726 12.5341Z" fill="#FF0000"/>
<path d="M54.6576 14.9313C51.9864 14.9313 49.5891 13.6984 48.0138 11.8491L42.4658 48.493H54.9316L60.3425 12.8765C58.7672 14.1779 56.8494 14.9313 54.6576 14.9313Z" fill="#FF0000"/>
<path d="M83.8357 23.4931C87.2781 23.4931 90.0685 20.7025 90.0685 17.2602C90.0685 13.8179 87.2781 11.0273 83.8357 11.0273C80.3932 11.0273 77.6028 13.8179 77.6028 17.2602C77.6028 20.7025 80.3932 23.4931 83.8357 23.4931Z" fill="#FF0000"/>
<path d="M75.1369 17.2606C75.1369 14.8633 76.0958 12.6715 77.6712 11.0962H65.9589L60.2739 48.4935H72.7397L76.7123 22.1921C75.6849 20.8222 75.1369 19.1099 75.1369 17.2606Z" fill="#FF0000"/>
<path d="M177.124 12.4658C180.566 12.4658 183.356 9.67521 183.356 6.23288C183.356 2.79055 180.566 0 177.124 0C173.681 0 170.891 2.79055 170.891 6.23288C170.891 9.67521 173.681 12.4658 177.124 12.4658Z" fill="#FF0000"/>
<path d="M177.123 14.9317C174.384 14.9317 171.918 13.6303 170.274 11.644L164.658 48.4934H177.123L182.534 13.0139C181.028 14.2468 179.178 14.9317 177.123 14.9317Z" fill="#FF0000"/>
</g>
</g>
<defs>
<clipPath id="clip0_14_122">
<rect width="226.712" height="50" fill="white"/>
</clipPath>
</defs>
</svg>
