<svg width="142" height="50" viewBox="0 0 142 50" fill="none" xmlns="http://www.w3.org/2000/svg">
<g clip-path="url(#clip0_14_106)">
<path d="M79.2715 4.71512L79.1623 4.6055L77.4153 2.85107L75.5591 4.71512L77.4153 6.57917L79.2715 4.71512Z" fill="#BD8B13"/>
<path d="M83.0931 4.71512L82.8747 4.6055L81.1277 2.85107L79.2715 4.71512L81.1277 6.57917L83.0931 4.71512Z" fill="#BD8B13"/>
<path d="M57.4336 4.27634C57.4336 4.71494 57.8704 4.82456 58.0887 4.93421C58.5255 5.04386 58.853 5.37283 58.853 5.92108V20.5044H74.9039V20.7237C74.9039 20.8334 74.9039 20.8333 74.9039 21.1623C74.9039 22.3684 75.3406 23.136 75.9958 23.4649C75.9958 23.4649 76.4325 23.6842 76.8693 23.6842C77.306 23.6842 77.6336 23.5746 78.0704 23.2456L78.2888 23.1359L78.0704 22.9167C77.6336 22.4781 77.4152 21.4913 77.4152 20.7237V20.614H83.4206V7.23682C83.4206 7.23682 82.6563 8.9912 79.7082 11.0745C79.7082 11.0745 79.8174 11.6228 80.3634 11.8421C81.1277 12.2807 81.0185 12.6097 81.0185 12.6097V17.9825H77.306V17.7632V17.5439C77.306 16.2281 76.8693 12.9386 73.3752 12.9386H73.2661C72.1742 12.9386 71.1914 12.9386 70.3179 12.9386H70.0996C68.025 12.9386 66.9331 12.7193 66.4963 12.171L66.3871 11.9518L66.2779 12.0614C65.8412 12.2807 65.6228 12.829 65.6228 13.3772C65.6228 14.1448 66.1687 15.2413 66.933 15.2413C67.479 15.2413 68.2433 15.2413 69.0077 15.2413C70.3179 15.2413 71.7374 15.2413 71.7374 15.2413C74.6855 15.2413 74.7947 16.557 74.7947 17.1052V17.7632H61.2552V0C61.2552 0 59.6174 2.19301 57.4336 3.7281V3.83772V4.27634Z" fill="#BD8B13"/>
<path d="M48.1525 22.6971C48.1525 22.6971 47.9341 24.8901 52.3017 24.8901C55.9049 24.8901 56.0141 22.5875 56.0141 22.5875V14.2541C56.0141 13.7059 55.9049 12.2805 54.3763 12.2805H41.9287V11.2936C41.9287 11.0743 42.0379 11.0743 42.3655 10.8551C43.0206 10.4165 43.1298 10.0875 43.0206 9.75856C41.6011 8.99102 40.0725 7.12695 40.0725 7.12695V14.3638H52.5201H52.6293C53.066 14.3638 53.612 14.4734 53.612 15.3506V21.2717C53.612 21.2717 53.612 22.4778 52.4109 22.4778C50.4455 22.4778 50.5547 21.3813 50.5547 21.3813V18.2015H40.0725V20.7235H48.2617V22.6971H48.1525Z" fill="#BD8B13"/>
<path d="M100.236 5.92101C100.236 5.26311 100.673 5.15344 100.891 4.93414C101.109 4.82449 101.437 4.71483 101.546 4.16658V4.05696C101.546 3.83766 101.437 3.83763 101.109 3.61833C100.891 3.50869 100.454 3.17974 99.6898 2.52184C98.3796 1.42535 98.052 0.877106 98.052 0.877106L97.6152 0.219238V20.6139H100.127C100.236 20.5043 100.236 6.3596 100.236 5.92101Z" fill="#BD8B13"/>
<path d="M91.719 23.2458L89.972 25.0002L88.225 23.2458L89.972 21.4914L91.719 23.2458ZM86.0412 23.2458L90.1904 27.4125L94.3396 23.2458L91.8282 20.7239L94.8855 17.544V0.329102C94.8855 0.329102 93.6844 2.85103 91.719 4.16682V4.27651C91.719 4.71511 91.9374 4.82473 92.265 4.93438C92.5926 5.04403 92.8109 5.373 92.8109 5.92125C92.8109 6.46949 92.8109 16.2282 92.8109 16.2282L90.2996 18.8598L87.7882 16.2282C87.7882 16.1186 87.7882 6.25019 87.7882 5.92125C87.7882 5.26335 88.0066 5.15368 88.3342 4.93438C88.5525 4.82473 88.7709 4.71511 88.8801 4.27651V4.16682C87.0239 2.85103 85.7136 0.329102 85.7136 0.329102V17.7633L88.7709 20.8335L86.0412 23.2458Z" fill="#BD8B13"/>
<path d="M78.7255 32.2367L79.3807 32.6753C79.4899 32.7849 79.4898 32.7849 79.4898 32.8946V38.2674H67.9158L65.2952 41.6665V32.8946V32.785L65.4044 32.6753L65.9504 32.2367V31.6885H60.1633V32.2367L60.7093 32.6753L60.8185 32.785V48.7937V49.013L60.7093 49.1226L60.1633 49.5613V50.1095H65.9504V49.5613L65.2952 49.1226L65.186 49.013V41.7761L65.8412 41.8858L66.6055 41.4472L67.0422 41.3376C67.0422 41.3376 67.1514 41.3376 67.2606 41.3376H79.2715V46.9297L83.639 42.2148V33.0042L83.7482 32.8946L84.4033 32.6753V32.127H78.6163V32.2367H78.7255Z" fill="#BD8B13"/>
<path d="M141.073 38.8159C140.417 36.6229 138.78 34.9781 136.487 33.5527C134.412 32.3466 131.355 31.7983 127.206 31.7983H111.373V32.3466L112.028 32.7852V34.6492H126.987C130.044 34.6492 132.337 35.0878 133.648 35.8554C135.722 37.0615 136.814 38.8159 136.814 40.7896C136.814 41.8861 136.596 42.7633 136.05 43.7501C135.504 44.5177 134.63 45.3949 133.538 45.9431C132.119 46.7106 129.826 47.1492 126.878 47.1492H119.016V35.965H114.758V48.6843V48.794L114.649 48.9036L114.103 49.1229V49.6711H126.987C129.498 49.6711 131.355 49.5615 132.774 49.2326C134.63 48.794 136.377 48.136 137.688 47.2588C139.107 46.272 140.199 45.0659 140.745 43.8597C141.182 42.8729 141.4 41.9957 141.4 40.8992C141.291 40.2413 141.182 39.4738 141.073 38.8159Z" fill="#BD8B13"/>
<path d="M92.7019 34.978L78.6165 49.7807H85.0586V49.1227H84.8403H84.6219H84.4035L95.1041 37.7193L92.7019 34.978Z" fill="#BD8B13"/>
<path d="M106.896 49.2326V49.8904H113.229L96.3051 31.7983L93.7937 34.4299L96.5234 37.3904L99.4716 40.351H94.558L91.9375 43.2019L92.4834 43.6404L93.1386 43.2019H93.2478C93.2478 43.2019 93.4661 43.2019 93.6845 43.2019H101.874L107.552 49.3422C107.552 49.3422 107.442 49.4518 107.006 49.4518H106.896V49.2326Z" fill="#BD8B13"/>
<path d="M57.6519 32.566L58.1978 32.1273V31.5791H52.52V32.1273L53.066 32.566L53.2843 32.7853V48.4651V48.6844L53.1752 48.794L52.52 49.0133V49.5616H58.1978V49.0133L57.6519 48.794L57.5427 48.6844V32.8949V32.7853L57.6519 32.566Z" fill="#BD8B13"/>
<path d="M29.2627 46.2721H29.0444H28.3892L27.6249 46.7107C27.5157 46.8203 27.4065 46.8204 27.1881 46.8204H14.3038C11.3557 46.8204 9.17191 46.3817 7.64326 45.6142C5.35028 44.408 4.36757 42.7633 4.36757 40.5703C4.36757 39.5835 4.58594 38.5967 5.24108 37.7195C6.33297 36.0748 7.86163 34.8686 10.2638 34.5396C10.9189 34.43 11.4649 34.43 11.9016 34.43H18.5622C18.9989 34.43 18.9989 34.5396 18.9989 34.5396L18.8897 35.0879H19.4357L22.1654 31.5791H14.1946C12.3384 31.5791 10.9189 31.5791 9.93624 31.6888C9.39029 31.6888 8.84433 31.7984 8.51676 31.908C7.20648 32.1273 6.00541 32.6756 4.80433 33.3335C2.83892 34.43 1.52866 35.8554 0.655143 37.5002C0.218385 38.487 0 39.4738 0 40.68C0 43.6405 1.63785 45.9431 4.58597 47.6975C5.89624 48.4651 7.53406 49.0133 9.1719 49.3423C10.4822 49.5616 12.2292 49.5616 14.3038 49.5616H26.2054L29.2627 46.2721Z" fill="#BD8B13"/>
<path d="M22.8206 41.9956L25.5503 38.4868H6.8789L5.02271 41.3377H21.8379C22.0562 41.3377 22.2746 41.4474 22.2746 41.4474L22.1654 41.9956H22.8206Z" fill="#BD8B13"/>
<path d="M24.24 31.6885L21.6194 35.0876L22.1653 35.1972H22.2745L23.0389 34.7586C23.2572 34.649 23.4756 34.5393 23.694 34.5393H34.067V48.5744V48.6841L33.9578 48.7937L33.4119 49.2323V49.7806H39.1989V49.2323L38.6529 48.7937L38.5437 48.6841V48.5744V34.5393H47.7157C48.1524 34.5393 48.1524 34.6489 48.1524 34.6489V35.1972H48.6984L51.4281 31.6885H24.24Z" fill="#BD8B13"/>
</g>
<defs>
<clipPath id="clip0_14_106">
<rect width="141.509" height="50" fill="white"/>
</clipPath>
</defs>
</svg>
