<svg width="246" height="50" viewBox="0 0 246 50" fill="none" xmlns="http://www.w3.org/2000/svg">
<g clip-path="url(#clip0_14_103)">
<path fill-rule="evenodd" clip-rule="evenodd" d="M236.649 17.3911C236.649 18.4781 235.778 19.4564 234.581 19.4564C233.492 19.4564 232.513 18.5868 232.513 17.3911C232.513 16.1955 233.383 15.3259 234.581 15.3259C235.778 15.3259 236.649 16.1955 236.649 17.3911ZM230.553 11.1955C230.553 12.2824 229.682 13.2607 228.485 13.2607C227.396 13.2607 226.417 12.3911 226.417 11.1955C226.417 10.1085 227.288 9.13026 228.485 9.13026C229.682 9.13026 230.553 10.1085 230.553 11.1955ZM236.649 11.1955C236.649 12.2824 235.778 13.2607 234.581 13.2607C233.492 13.2607 232.513 12.3911 232.513 11.1955C232.513 10.1085 233.383 9.13026 234.581 9.13026C235.778 9.13026 236.649 10.1085 236.649 11.1955ZM224.457 11.1955C224.457 12.2824 223.587 13.2607 222.389 13.2607C221.301 13.2607 220.321 12.3911 220.321 11.1955C220.321 10.1085 221.192 9.13026 222.389 9.13026C223.587 9.13026 224.457 10.1085 224.457 11.1955ZM240.132 4.67374C240.894 5.43461 240.894 6.73896 240.132 7.60853C239.37 8.3694 238.064 8.3694 237.302 7.60853C236.54 6.84766 236.54 5.54331 237.302 4.67374C238.064 3.91287 239.37 3.91287 240.132 4.67374ZM245.249 0.543308C246.01 1.30418 246.01 2.60853 245.249 3.47809C244.487 4.23896 243.18 4.23896 242.418 3.47809C241.656 2.71722 241.656 1.41287 242.418 0.543308C243.18 -0.217561 244.487 -0.217561 245.249 0.543308ZM217.382 11.1955C217.382 12.2824 216.511 13.2607 215.314 13.2607C214.225 13.2607 213.245 12.3911 213.245 11.1955C213.245 10.1085 214.116 9.13026 215.314 9.13026C216.402 9.13026 217.382 10.1085 217.382 11.1955ZM211.177 11.1955C211.177 12.2824 210.306 13.2607 209.109 13.2607C208.02 13.2607 207.041 12.3911 207.041 11.1955C207.041 10.1085 207.912 9.13026 209.109 9.13026C210.306 9.13026 211.177 10.1085 211.177 11.1955ZM234.69 21.4129C235.778 21.4129 236.758 22.2824 236.758 23.4781C236.758 24.565 235.887 25.5433 234.69 25.5433C233.601 25.5433 232.621 24.6737 232.621 23.4781C232.621 22.3911 233.492 21.4129 234.69 21.4129ZM212.266 41.8477C212.266 42.9346 211.395 43.9129 210.197 43.9129C209.109 43.9129 208.129 43.0433 208.129 41.8477C208.129 40.652 209 39.7824 210.197 39.7824C211.286 39.7824 212.266 40.7607 212.266 41.8477ZM206.17 35.7607C206.17 36.8477 205.299 37.8259 204.102 37.8259C203.013 37.8259 202.033 36.9564 202.033 35.7607C202.033 34.6737 202.904 33.6955 204.102 33.6955C205.19 33.6955 206.17 34.5651 206.17 35.7607ZM212.266 35.7607C212.266 36.8477 211.395 37.8259 210.197 37.8259C209.109 37.8259 208.129 36.9564 208.129 35.7607C208.129 34.6737 209 33.6955 210.197 33.6955C211.286 33.6955 212.266 34.5651 212.266 35.7607ZM199.965 35.7607C199.965 36.8477 199.094 37.8259 197.897 37.8259C196.808 37.8259 195.829 36.9564 195.829 35.7607C195.829 34.6737 196.7 33.6955 197.897 33.6955C199.094 33.6955 199.965 34.5651 199.965 35.7607ZM210.197 45.8694C211.286 45.8694 212.266 46.739 212.266 47.9346C212.266 49.0216 211.395 49.9998 210.197 49.9998C209.109 49.9998 208.129 49.1303 208.129 47.9346C208.129 46.8477 209.109 45.8694 210.197 45.8694ZM234.69 27.4998C235.778 27.4998 236.758 28.3694 236.758 29.565C236.758 30.7607 235.887 31.6303 234.69 31.6303C233.601 31.6303 232.621 30.7607 232.621 29.565C232.621 28.3694 233.492 27.4998 234.69 27.4998ZM234.69 34.6737C235.778 34.6737 236.758 35.5433 236.758 36.739C236.758 37.9346 235.887 38.8042 234.69 38.8042C233.601 38.8042 232.621 37.9346 232.621 36.739C232.621 35.5433 233.492 34.6737 234.69 34.6737ZM221.409 26.5216C221.409 27.6085 220.539 28.5868 219.341 28.5868C218.253 28.5868 217.273 27.7172 217.273 26.5216C217.273 25.4346 218.144 24.4564 219.341 24.4564C220.539 24.4564 221.409 25.4346 221.409 26.5216ZM224.893 19.9998C225.655 20.7607 225.655 22.065 224.893 22.9346C224.131 23.6955 222.825 23.6955 222.063 22.9346C221.301 22.1737 221.301 20.8694 222.063 19.9998C222.825 19.239 224.131 19.239 224.893 19.9998ZM230.009 15.8694C230.771 16.6303 230.771 17.9346 230.009 18.8042C229.247 19.565 227.941 19.565 227.179 18.8042C226.417 18.0433 226.417 16.739 227.179 15.8694C227.941 15.1085 229.138 15.1085 230.009 15.8694ZM216.729 29.1303C217.491 29.8911 217.491 31.1955 216.729 32.065C215.967 32.8259 214.66 32.8259 213.898 32.065C213.137 31.3042 213.137 29.9998 213.898 29.1303C214.66 28.3694 215.967 28.3694 216.729 29.1303ZM136.177 43.9129C131.387 47.9346 125.835 49.9998 119.413 49.9998C112.555 49.9998 106.568 47.6085 101.561 42.8259C96.5537 37.9346 94.1589 32.065 94.1589 25.1085C94.1589 18.152 96.6625 12.2824 101.561 7.39113C106.677 2.49983 112.555 -0.000169847 119.413 -0.000169847C123.441 -0.000169847 127.033 0.652004 130.081 2.06505C133.129 3.3694 136.285 5.54331 139.442 8.69548L139.66 8.91287L134.87 14.1303L134.544 13.9129C131.496 11.4129 129.101 9.67374 127.468 8.80418C124.965 7.49983 122.352 6.84766 119.304 6.84766C114.188 6.84766 109.943 8.58679 106.568 12.1737C103.194 15.7607 101.452 20.1085 101.452 25.1085C101.452 30.1085 103.194 34.4564 106.568 37.9346C109.943 41.5216 114.188 43.2607 119.304 43.2607C123.985 43.2607 128.013 41.8477 131.278 39.1303C134.653 36.3042 136.394 32.7172 136.503 28.2607H119.848V21.5216H144.014V25.9781C144.123 33.4781 141.51 39.4564 136.177 43.9129ZM177.759 44.9998C174.384 48.2607 170.248 49.8911 165.458 49.8911C160.778 49.8911 156.641 48.2607 153.267 44.9998C149.892 41.739 148.151 37.6085 148.151 32.4998C148.151 27.4998 149.783 23.3694 153.158 20.1085C156.532 16.8477 160.669 15.1085 165.458 15.1085C170.139 15.1085 174.276 16.739 177.65 20.1085C181.133 23.3694 182.875 27.4998 182.875 32.4998C182.875 37.4998 181.133 41.739 177.759 44.9998ZM172.86 24.6737C170.901 22.6085 168.506 21.6303 165.458 21.6303C162.41 21.6303 159.907 22.6085 157.947 24.6737C156.097 26.6303 155.117 29.239 155.117 32.4998C155.117 35.7607 156.097 38.3694 158.056 40.4346C160.016 42.4998 162.41 43.4781 165.458 43.4781C168.506 43.4781 170.901 42.4998 172.86 40.4346C174.82 38.3694 175.8 35.7607 175.8 32.4998C175.8 29.239 174.82 26.6303 172.86 24.6737ZM89.0427 11.739C88.3896 12.4998 87.3011 12.9346 86.1037 12.9346C84.9063 12.9346 83.9266 12.4998 83.1646 11.739C82.5115 10.9781 82.0761 9.99983 82.0761 8.91287C82.0761 7.82592 82.4026 6.84766 83.1646 6.08679C83.9266 5.32592 84.9063 4.89113 86.1037 4.89113C87.3011 4.89113 88.2808 5.32592 88.9339 6.08679C89.6959 6.84766 90.0224 7.71722 90.0224 8.80418C90.1313 9.99983 89.8047 10.9781 89.0427 11.739ZM82.7292 49.1303V15.8694H89.4781V49.1303H82.7292ZM73.2589 44.7824C70.1021 48.152 66.0745 49.7824 61.0672 49.7824C55.8422 49.7824 51.5969 48.0433 48.3313 44.3477C45.2833 40.9781 43.7594 36.6303 43.7594 31.6303C43.7594 27.065 45.2833 23.152 48.4401 19.9998C51.5969 16.739 55.4068 15.2172 59.8698 15.2172C63.3531 15.2172 66.5099 15.9781 69.3401 17.4998L69.5578 17.6085V24.7824L69.0136 24.3477C67.925 23.5868 66.6188 22.9346 65.0948 22.3911C63.5709 21.8477 62.2646 21.5216 61.0672 21.5216C57.9104 21.5216 55.4068 22.4998 53.5563 24.4564C51.7057 26.4129 50.7261 29.0216 50.7261 32.2824C50.7261 35.5433 51.7057 38.152 53.6651 40.2172C55.6245 42.2824 58.1281 43.2607 61.2849 43.2607C64.224 43.2607 66.6188 42.1737 68.4693 39.9998C70.4287 37.8259 71.4084 34.565 71.4084 30.3259V0.869395H78.1573V31.5216C78.0485 36.9564 76.5245 41.4129 73.2589 44.7824ZM33.0917 49.1303V29.7824C33.0917 27.3911 32.3297 25.4346 30.8057 23.9129C29.3906 22.3911 27.5401 21.5216 25.4719 21.5216C23.4037 21.5216 21.662 22.2824 20.138 23.9129C18.6141 25.4346 17.9609 27.3911 17.9609 29.7824V49.1303H11.212V29.7824C11.212 25.5433 12.5182 21.9564 15.2396 19.239C17.9609 16.5216 21.3354 15.1085 25.5807 15.1085C29.7172 15.1085 33.0917 16.4129 35.813 19.239C38.5344 21.9564 39.9495 25.4346 39.9495 29.7824V49.1303H33.0917ZM0 49.1303V0.869395H7.18438V49.239H0V49.1303Z" fill="#001B94"/>
</g>
<defs>
<clipPath id="clip0_14_103">
<rect width="245.902" height="50" fill="white"/>
</clipPath>
</defs>
</svg>
