<svg width="203" height="50" viewBox="0 0 203 50" fill="none" xmlns="http://www.w3.org/2000/svg">
<g clip-path="url(#clip0_14_138)">
<path d="M202.639 17.8479C202.576 17.8479 201.495 17.7846 201.495 17.7846C196.984 17.4682 197.047 13.3542 197.047 13.3542C197.111 8.35425 194.252 0.379561 182.941 -0.0634766H163.433L163.179 0.885891H179.573C181.225 0.949182 182.369 2.15171 181.861 4.11374L178.938 14.7467C177.794 17.9112 174.871 17.7846 174.871 17.7846C171.884 17.5315 172.71 14.6834 172.71 14.6834L174.045 9.80994C174.49 8.16437 173.282 7.34159 172.266 7.34159H161.4L161.146 8.29095H165.784C167.5 8.35425 167.881 9.62007 167.563 10.7593C167.563 10.7593 166.992 12.7846 166.293 15.3163C165.657 17.7846 163.37 17.8479 162.988 17.8479H158.477L158.159 18.9872H162.416C162.925 18.9872 165.212 19.0504 164.513 21.5188C163.814 24.0504 163.242 26.0758 163.242 26.0758C162.925 27.215 161.845 28.4808 160.129 28.5441H155.49L155.236 29.4935H166.102C167.119 29.4302 168.771 28.6707 169.279 27.0251L170.613 22.1517C170.613 22.1517 171.312 19.3036 174.49 19.0504C174.49 19.0504 177.54 18.8606 176.841 22.0884L173.918 32.7213C173.346 34.6834 171.567 35.8859 169.851 35.9492H153.457L153.203 36.9618H172.774C184.339 36.5188 191.583 28.5441 194.315 23.5441C194.315 23.5441 196.476 19.4935 201.178 19.1137L202.321 19.0504C202.321 19.0504 202.385 19.0504 202.449 18.9872C202.512 18.7973 202.703 18.0378 202.703 17.9745C202.703 17.8479 202.703 17.8479 202.639 17.8479Z" fill="#0A468C"/>
<path d="M202.639 17.8479C202.576 17.8479 201.495 17.7846 201.495 17.7846C196.984 17.4682 197.047 13.3542 197.047 13.3542C197.111 8.35425 194.252 0.379561 182.941 -0.0634766H163.433L163.179 0.885891H179.573C181.225 0.949182 182.369 2.15171 181.861 4.11374L178.938 14.7467C177.794 17.9112 174.871 17.7846 174.871 17.7846C171.884 17.5315 172.71 14.6834 172.71 14.6834L174.045 9.80994C174.49 8.16437 173.282 7.34159 172.266 7.34159H161.4L161.146 8.29095H165.784C167.5 8.35425 167.881 9.62007 167.563 10.7593C167.563 10.7593 166.992 12.7846 166.293 15.3163C165.657 17.7846 163.37 17.8479 162.988 17.8479H158.477L158.159 18.9872H162.416C162.925 18.9872 165.212 19.0504 164.513 21.5188C163.814 24.0504 163.242 26.0758 163.242 26.0758C162.925 27.215 161.845 28.4808 160.129 28.5441H155.49L155.236 29.4935H166.102C167.119 29.4302 168.771 28.6707 169.279 27.0251L170.613 22.1517C170.613 22.1517 171.312 19.3036 174.49 19.0504C174.49 19.0504 177.54 18.8606 176.841 22.0884L173.918 32.7213C173.346 34.6834 171.567 35.8859 169.851 35.9492H153.457L153.203 36.9618H172.774C184.339 36.5188 191.583 28.5441 194.315 23.5441C194.315 23.5441 196.476 19.4935 201.178 19.1137L202.321 19.0504C202.321 19.0504 202.385 19.0504 202.449 18.9872C202.512 18.7973 202.703 18.0378 202.703 17.9745C202.703 17.8479 202.703 17.8479 202.639 17.8479Z" fill="#0A468C"/>
<mask id="mask0_14_138" style="mask-type:luminance" maskUnits="userSpaceOnUse" x="153" y="-1" width="50" height="38">
<path d="M202.639 17.8479C202.576 17.8479 201.495 17.7846 201.495 17.7846C196.984 17.4682 197.047 13.3542 197.047 13.3542C197.111 8.35425 194.252 0.379561 182.941 -0.0634766H163.433L163.179 0.885891H179.573C181.225 0.949182 182.369 2.15171 181.861 4.11374L178.938 14.7467C177.794 17.9112 174.871 17.7846 174.871 17.7846C171.884 17.5315 172.71 14.6834 172.71 14.6834L174.045 9.80994C174.49 8.16437 173.282 7.34159 172.266 7.34159H161.4L161.146 8.29095H165.784C167.5 8.35425 167.881 9.62007 167.563 10.7593C167.563 10.7593 166.992 12.7846 166.293 15.3163C165.657 17.7846 163.37 17.8479 162.988 17.8479H158.477L158.159 18.9872H162.416C162.925 18.9872 165.212 19.0504 164.513 21.5188C163.814 24.0504 163.242 26.0758 163.242 26.0758C162.925 27.215 161.845 28.4808 160.129 28.5441H155.49L155.236 29.4935H166.102C167.119 29.4302 168.771 28.6707 169.279 27.0251L170.613 22.1517C170.613 22.1517 171.312 19.3036 174.49 19.0504C174.49 19.0504 177.54 18.8606 176.841 22.0884L173.918 32.7213C173.346 34.6834 171.567 35.8859 169.851 35.9492H153.457L153.203 36.9618H172.774C184.339 36.5188 191.583 28.5441 194.315 23.5441C194.315 23.5441 196.476 19.4935 201.178 19.1137L202.321 19.0504C202.321 19.0504 202.385 19.0504 202.449 18.9872C202.512 18.7973 202.703 18.0378 202.703 17.9745C202.703 17.8479 202.703 17.8479 202.639 17.8479Z" fill="white"/>
</mask>
<g mask="url(#mask0_14_138)">
<path d="M203.402 -1.0127H157.587V18.4177H203.402V-1.0127Z" fill="#0A468C"/>
</g>
<path d="M27.5777 19.4301C26.9423 18.6706 25.7985 17.7212 23.5745 17.7212H5.27408L0 36.8984H5.147L9.2773 21.9617H13.8524L9.78565 36.8984H14.9326L18.9994 21.9617H20.9692C21.7953 21.9617 22.3672 22.1516 22.6849 22.5946C23.1297 23.1642 23.0026 24.1136 22.8755 24.5566L19.5078 36.8984H24.6547L28.2767 23.6073C28.658 22.0883 28.4038 20.5693 27.5777 19.4301Z" fill="#0A468C"/>
<path d="M48.8648 19.6201C47.9752 18.4809 46.3231 17.7847 44.5439 17.7847H33.4239L32.3436 21.772H42.0657C43.0824 21.772 43.7814 22.0252 44.1627 22.4682C44.5439 22.9113 44.6075 23.6707 44.3533 24.5568L44.0991 25.3163H35.9656C32.2801 25.3163 29.4206 27.5315 28.4039 31.0758C27.8956 32.848 28.0862 34.3669 28.9123 35.3796C29.6748 36.3923 31.0728 36.8986 32.852 36.8986H46.0689L49.4367 24.6201C50.0086 22.5315 49.818 20.8226 48.8648 19.6201ZM42.0657 32.9113H35.8385C35.2666 32.9113 34.377 32.848 34.0593 32.4049C33.8687 32.1518 33.8051 31.7087 33.9322 31.1391C34.377 29.4935 35.6479 29.3037 36.9187 29.3037H43.0824L42.0657 32.9113Z" fill="#0A468C"/>
<path d="M78.5395 19.6201C77.6499 18.4809 75.9978 17.7847 74.2186 17.7847H63.1621L62.0818 21.772H71.8039C72.8206 21.772 73.5196 22.0252 73.9009 22.4682C74.2821 22.9113 74.3457 23.6707 74.0915 24.5568L73.9009 25.3163H65.7673C62.0818 25.3163 59.2224 27.5315 58.2057 31.0758C57.6974 32.848 57.888 34.3669 58.7141 35.3796C59.4766 36.3923 60.8745 36.8986 62.6537 36.8986H75.8707L79.2385 24.6201C79.7468 22.5315 79.5562 20.8226 78.5395 19.6201ZM71.7404 32.9113H65.5132C64.9413 32.9113 64.0517 32.848 63.734 32.4049C63.5433 32.1518 63.4798 31.7087 63.6069 31.1391C64.0517 29.4935 65.3225 29.3037 66.5934 29.3037H72.7571L71.7404 32.9113Z" fill="#0A468C"/>
<path d="M96.7127 17.7845L92.5824 32.7212H87.499C86.6729 32.7212 86.101 32.5313 85.7833 32.0883C85.275 31.5187 85.4656 30.5693 85.5927 30.063L88.9605 17.7212H83.877L80.3821 30.506C79.8103 32.468 80.0009 34.0503 80.8905 35.1263C82.0343 36.5187 84.0677 36.8351 85.5291 36.8351H91.4387L90.9303 38.7338C90.6126 39.8731 89.2782 41.1389 87.3719 41.1389H77.904L76.8237 45.1263H87.8167C90.8668 45.1263 95.0606 42.468 96.0773 38.6706L101.86 17.7212L96.7127 17.7845Z" fill="#0A468C"/>
<path d="M119.779 26.8353C119.016 25.8226 117.618 25.3163 115.839 25.3163H110.565C109.929 25.3163 109.04 25.253 108.722 24.81C108.532 24.5568 108.468 24.1138 108.595 23.6075C109.04 21.9619 110.374 21.772 111.645 21.772H121.876L122.956 17.7847H110.692C107.006 17.7847 104.147 19.9999 103.13 23.5442C102.622 25.3163 102.813 26.772 103.639 27.848C104.401 28.8606 105.799 29.3669 107.578 29.3669H112.852C113.488 29.3669 114.314 29.4302 114.695 29.8733C114.886 30.1264 114.949 30.5695 114.822 31.1391C114.377 32.7847 113.043 32.9745 111.772 32.9745H100.525L99.4448 36.9619H112.725C116.411 36.9619 119.27 34.7467 120.287 31.2024C120.795 29.3669 120.605 27.9113 119.779 26.8353Z" fill="#0A468C"/>
<path d="M126.324 17.7847L121.113 36.8986H126.26L131.471 17.7847H126.324Z" fill="#0A468C"/>
<path d="M150.407 19.6201C149.517 18.4809 147.865 17.7847 146.086 17.7847H134.966L133.886 21.772H143.608C144.624 21.772 145.323 22.0252 145.705 22.4682C146.086 22.9113 146.149 23.6707 145.895 24.5568L145.705 25.3163H137.571C133.886 25.3163 131.026 27.5315 130.009 31.0758C129.501 32.848 129.692 34.3669 130.518 35.3796C131.28 36.3923 132.678 36.8986 134.457 36.8986H147.674L151.042 24.6201C151.614 22.5315 151.36 20.8226 150.407 19.6201ZM143.608 32.9113H137.38C136.809 32.9113 135.919 32.848 135.601 32.4049C135.411 32.1518 135.347 31.7087 135.474 31.1391C135.919 29.4935 137.19 29.3037 138.461 29.3037H144.624L143.608 32.9113Z" fill="#0A468C"/>
<path d="M55.7272 12.5947L49.0552 36.8985H54.2022L60.8742 12.5947H55.7272Z" fill="#0A468C"/>
<path d="M105.545 41.8355C105.1 41.2659 104.274 41.2026 104.02 41.2026H98.4917L98.174 42.4052H103.257C103.702 42.4052 104.02 42.5318 104.211 42.7849C104.338 42.9748 104.338 43.2912 104.274 43.5444C104.211 43.7976 103.956 44.6204 103.956 44.6204H100.08C98.2375 44.6204 96.9667 45.5697 96.5219 47.2786C96.3312 48.1014 96.5219 48.671 96.8396 49.114C97.2208 49.5571 97.8563 49.8102 98.8094 49.8102H104.02L105.672 43.671C105.99 42.8482 105.926 42.2786 105.545 41.8355ZM102.876 48.6077H99.5084C98.873 48.6077 98.4917 48.4811 98.3011 48.228C98.1104 47.9748 98.0469 47.6583 98.174 47.2153C98.4282 46.2659 99.1271 45.8229 100.271 45.8229H103.702L102.876 48.6077Z" fill="#0A468C"/>
<path d="M107.07 49.8102L109.358 41.2026H107.896L105.545 49.8102H107.07Z" fill="#0A468C"/>
<path d="M115.458 49.81L118.444 38.7974H116.983L113.933 49.81H115.458Z" fill="#0A468C"/>
<path d="M118.444 49.8102L120.732 41.2026H119.271L116.919 49.8102H118.444Z" fill="#0A468C"/>
<path d="M126.705 41.2026H122.193L119.842 49.8102H121.367L123.401 42.4052H126.197C126.832 42.4052 127.213 42.5317 127.404 42.8482C127.658 43.228 127.531 43.7343 127.404 44.4305L125.942 49.8102H127.467L129.056 44.0507C129.31 43.1014 129.183 42.4052 128.865 41.9621C128.421 41.4558 127.722 41.2026 126.705 41.2026Z" fill="#0A468C"/>
<path d="M131.661 44.7469C132.043 43.7976 133.059 42.4052 134.838 42.4052H137.889L138.206 41.2026H134.648C132.106 41.2026 130.327 43.3545 129.755 45.5064C129.374 46.8988 129.501 48.1014 130.073 48.8609C130.518 49.4938 131.28 49.7469 132.233 49.7469H135.792L136.109 48.5444C136.109 48.5444 133.758 48.5444 133.059 48.5444C132.297 48.5444 131.788 48.3545 131.471 48.0381C131.089 47.595 131.089 46.8356 131.28 46.0761V46.0128H136.681L136.999 44.8102H131.661V44.7469Z" fill="#0A468C"/>
<path d="M146.531 42.4682L146.848 41.2656H142.083C139.668 41.2656 138.905 42.8479 138.588 43.734C138.397 44.4302 138.524 44.9998 138.778 45.3163C139.096 45.7593 139.668 46.0125 140.621 46.0125H142.972C144.37 46.0125 144.179 47.0884 144.052 47.4049C143.671 48.4808 142.527 48.6074 141.32 48.6074H137.253L136.936 49.8099H142.654C144.116 49.8099 145.323 48.9239 145.705 47.3416C145.895 46.5821 145.705 45.9492 145.387 45.5061C145.069 45.1264 144.497 44.8099 143.48 44.8099H141.447C141.256 44.8099 140.558 44.8099 140.367 44.4935C140.24 44.2403 140.24 43.9871 140.303 43.6707C140.621 42.5947 141.574 42.4682 142.019 42.4682H146.531Z" fill="#0A468C"/>
<path d="M113.297 41.2025C110.692 41.2025 110.183 43.6075 110.12 43.7974C110.056 43.9873 108.468 49.8733 108.468 49.8733H109.993C109.993 49.8733 111.518 44.1771 111.581 43.9873C111.645 43.7341 112.09 42.405 113.551 42.405C114.568 42.405 114.822 42.405 114.822 42.405L115.14 41.1392H113.297V41.2025Z" fill="#0A468C"/>
</g>
<defs>
<clipPath id="clip0_14_138">
<rect width="202.703" height="50" fill="white"/>
</clipPath>
</defs>
</svg>
