<svg width="179" height="50" viewBox="0 0 179 50" fill="none" xmlns="http://www.w3.org/2000/svg">
<g clip-path="url(#clip0_14_10)">
<path d="M32.7179 44.4025C32.337 44.4283 31.9672 44.4515 31.585 44.4515C31.1536 44.4515 30.7357 44.4148 30.3043 44.4025L31.5604 41.3929L32.7179 44.4025ZM34.1096 47.8164C34.3315 47.8042 34.6767 47.7441 35.0206 47.7441C35.3657 47.7441 35.7972 47.8042 35.9821 47.8164C35.4274 46.6295 34.6138 44.781 34.1466 43.7166C33.7028 42.6901 32.9644 40.9764 32.374 39.2995C32.2384 39.3362 32.1139 39.3619 31.9795 39.3619C31.8316 39.3619 31.7083 39.3362 31.5727 39.2995C31.2781 40.3027 30.5619 41.8939 29.3193 44.661L27.8906 47.8164C28.062 47.7919 28.2358 47.7441 28.4441 47.7441C28.6413 47.7441 28.8768 47.7919 29.0358 47.8164C29.2318 47.1194 29.6263 46.1027 30.0195 45.162C30.5126 45.1363 31.0057 45.113 31.4975 45.113C32.0276 45.113 32.5453 45.1363 33.0766 45.162L33.5919 46.4592L34.1096 47.8164Z" fill="#505967"/>
<path d="M37.0616 42.2491C37.0616 44.3413 37.0616 46.3612 36.926 47.8164C37.1985 47.8054 37.5424 47.7441 37.8123 47.7441C38.0959 47.7441 38.3917 47.8054 38.6752 47.8164C38.5766 46.8254 38.552 45.5037 38.552 43.681C38.552 42.4439 38.552 40.3284 38.6876 39.422C38.3917 39.4587 38.0848 39.4967 37.8123 39.4967C37.6287 39.4967 37.1713 39.4477 36.9384 39.422C37.0616 40.6077 37.0616 41.4774 37.0616 42.2491Z" fill="#505967"/>
<path d="M44.3858 43.6561C45.5076 43.4478 46.5295 42.7496 46.5295 41.3924C46.5295 40.8779 46.3323 40.3757 45.9637 40.0205C45.4348 39.5195 44.8296 39.4215 44.0296 39.4215C43.746 39.4215 42.3173 39.4827 41.9981 39.4827C41.3694 39.4827 41.0489 39.4472 40.7666 39.4215C40.8517 41.0004 40.8517 41.1719 40.8517 42.7753C40.8517 45.1358 40.8393 45.4053 40.7419 47.8159C41.0131 47.7804 41.309 47.7436 41.59 47.7436C41.8995 47.7436 42.1694 47.7914 42.416 47.8159C42.416 47.4987 42.3666 45.9197 42.3666 45.5645V43.8276H42.6625C43.3282 44.7573 44.09 45.834 44.7186 46.8017C44.9036 47.0822 45.1747 47.5354 45.3597 47.8159C45.7295 47.7669 45.8774 47.7436 46.3581 47.7436C46.8007 47.7436 47.1089 47.7804 47.4528 47.8159C46.6774 46.8507 46.3434 46.4219 45.372 45.0635C45.1871 44.8063 44.9159 44.402 44.731 44.146L44.3858 43.6561ZM42.3666 40.0829C42.5516 40.0695 43.0077 40.0205 43.2419 40.0205C43.6474 40.0205 44.0555 40.0829 44.3858 40.3279C44.8173 40.6452 44.9036 41.0862 44.9036 41.6006C44.9036 42.3944 44.4487 43.2898 43.2172 43.2898C42.8967 43.2898 42.6009 43.2641 42.3666 43.2518V40.0829Z" fill="#505967"/>
<path d="M50.8003 44.9537C50.2234 43.2523 49.4221 40.8662 49.04 39.422C48.7318 39.471 48.4618 39.4955 48.1783 39.4955C47.8825 39.4955 47.4633 39.4477 47.2168 39.422C47.7222 40.7437 48.1524 41.9171 48.4865 42.8481C49.0535 44.4393 49.4221 45.5417 49.8659 46.8855L50.1728 47.8164C50.3454 47.7809 50.5414 47.7441 50.6782 47.7441C50.8138 47.7441 50.9371 47.7674 51.1454 47.8164C51.3427 47.1807 51.5769 46.3979 51.7507 45.8957C52.229 44.5005 52.2918 44.3045 52.9205 42.5676L53.2891 41.5521C53.4247 41.9429 53.6589 42.5676 53.7933 42.9583C53.9289 43.3381 54.5575 45.211 54.7055 45.6275C54.9027 46.1775 54.9508 46.3355 55.4069 47.8164C55.5178 47.8042 55.7508 47.7441 55.9369 47.7441C56.1095 47.7441 56.2439 47.7809 56.4288 47.8164C56.8972 46.3612 56.9465 46.2142 57.6356 44.2555C58.3136 42.3459 58.7315 41.2581 59.4699 39.422C59.285 39.471 59.1025 39.4955 58.9164 39.4955C58.6822 39.4955 58.4862 39.4587 58.3506 39.422C57.9068 41.0132 57.6862 41.7849 57.3287 42.8358C56.7493 44.5483 56.6753 44.7443 56.3191 45.6752C55.9246 44.623 55.5425 43.5573 55.185 42.4818C54.989 41.8939 54.2358 39.4477 54.2247 39.422C54.0534 39.4587 53.9289 39.4955 53.6823 39.4955C53.4629 39.4955 53.3002 39.4477 53.1412 39.422C52.7714 40.9152 51.4659 44.5128 51.3427 44.8435L51.0345 45.6385L50.8003 44.9537Z" fill="#505967"/>
<path d="M63.2272 44.4025C62.845 44.4283 62.4765 44.4515 62.0931 44.4515C61.6629 44.4515 61.2438 44.4148 60.8135 44.4025L62.0684 41.3929L63.2272 44.4025ZM64.6177 47.8164C64.8408 47.8042 65.1859 47.7441 65.5299 47.7441C65.875 47.7441 66.3065 47.8042 66.4902 47.8164C65.9367 46.6295 65.1231 44.781 64.6547 43.7166C64.2109 42.6901 63.4725 40.9764 62.882 39.2995C62.7464 39.3362 62.6232 39.3619 62.4876 39.3619C62.3409 39.3619 62.2164 39.3362 62.0808 39.2995C61.7862 40.3027 61.0712 41.8939 59.8274 44.661L58.3987 47.8164C58.5725 47.7919 58.7438 47.7441 58.9534 47.7441C59.1506 47.7441 59.3836 47.7919 59.5451 47.8164C59.7411 47.1194 60.1368 46.1027 60.53 45.162C61.0219 45.1363 61.515 45.113 62.0068 45.113C62.5369 45.113 63.0534 45.1363 63.5834 45.162L64.1012 46.4592L64.6177 47.8164Z" fill="#505967"/>
<path d="M69.7875 44.5373C69.7875 44.4283 69.8615 44.2935 69.9478 44.1453C70.4655 43.2646 70.945 42.3459 71.4997 41.4652C71.6834 41.1712 72.5833 39.7527 72.7694 39.422C72.6326 39.471 72.497 39.4967 72.2517 39.4967C71.9793 39.4967 71.7327 39.4587 71.5355 39.422C70.6492 41.3561 70.4519 41.7714 69.4066 43.5586C68.36 41.7359 67.8916 40.7694 67.2506 39.422C66.8944 39.4832 66.5356 39.4967 66.241 39.4967C65.9698 39.4967 65.6863 39.471 65.2314 39.422C65.8712 40.4864 66.919 42.1756 67.5465 43.2523L68.2725 44.5005C68.2725 45.26 68.2355 46.8622 68.1998 47.8164C68.4328 47.7919 68.7779 47.7441 69.0232 47.7441C69.3068 47.7441 69.5915 47.7919 69.875 47.8164C69.8245 46.6784 69.7875 46.0182 69.7875 44.9893V44.5373Z" fill="#505967"/>
<path d="M73.4788 45.9818C73.4184 46.5686 73.4049 46.7278 73.1953 47.3636C73.6391 47.5841 74.4403 47.9883 75.498 47.9883C77.7526 47.9883 78.6266 46.5576 78.6266 45.3081C78.6266 44.9652 78.5403 44.2424 78.0238 43.6925C77.6663 43.3005 77.2965 43.167 76.3486 42.7995C75.2663 42.383 74.6363 42.138 74.6363 41.245C74.6363 40.5236 75.1171 39.9234 76.0897 39.9234C76.8651 39.9234 77.5196 40.2908 77.7033 40.9878H77.8759C77.9868 40.5236 78.0115 40.4256 78.258 39.8254C77.654 39.5571 77.1116 39.3244 76.213 39.3244C73.983 39.3244 73.3432 40.6951 73.3432 41.7705C73.3432 42.7872 73.702 43.4119 74.8952 43.9374C75.2391 44.0844 75.8197 44.3037 76.1637 44.4519C76.3979 44.5487 77.1745 44.8904 77.1745 45.8581C77.1745 46.7401 76.5322 47.3893 75.5609 47.3893C74.8336 47.3893 74.2172 47.2056 73.6514 45.9818H73.4788Z" fill="#505967"/>
<path d="M5.06148 23.3652C5.06148 14.1145 10.049 11.6169 13.8186 11.6169C19.8773 11.6169 22.5005 16.6109 22.5005 21.9345C22.5005 24.9809 22.1307 27.8448 20.6157 30.1586C19.1007 32.4701 16.5897 33.8665 13.8544 33.8665C7.02025 33.8665 5.06148 27.4038 5.06148 23.3652ZM23.4608 42.2744C24.569 41.5027 26.3059 40.5485 27.562 39.9973L19.2129 34.8562C24.3471 33.0581 27.562 28.505 27.562 22.3007C27.562 13.491 20.8006 9.74521 13.8913 9.74521C6.42978 9.74521 0 13.8573 0 23.1827C0 25.1634 0.443773 28.9092 3.54649 32.0303C6.76138 35.2617 10.5667 35.7382 13.7816 35.7382C14.1872 35.7382 14.5927 35.7382 15.0008 35.7027L23.4608 42.2744Z" fill="#5C0632"/>
<path d="M44.798 24.9813C43.6516 25.056 42.5446 25.1295 41.397 25.1295C40.1051 25.1295 38.849 25.018 37.5571 24.9813L41.3255 15.9499L44.798 24.9813ZM48.9732 35.2241C49.6376 35.1874 50.6731 35.0036 51.7061 35.0036C52.7428 35.0036 54.0334 35.1874 54.5894 35.2241C52.9264 31.6633 50.4882 26.1192 49.0829 22.9246C47.7528 19.8415 45.5364 14.7004 43.7638 9.67089C43.357 9.78235 42.9871 9.85585 42.5816 9.85585C42.1378 9.85585 41.768 9.78235 41.3624 9.67089C40.4749 12.683 38.3325 17.4553 34.6011 25.7517L30.3137 35.2241C30.8315 35.1519 31.3492 35.0036 31.9766 35.0036C32.5671 35.0036 33.271 35.1519 33.7505 35.2241C34.341 33.1307 35.5256 30.0843 36.7065 27.2572C38.1833 27.1849 39.6613 27.1114 41.1393 27.1114C42.7283 27.1114 44.2803 27.1849 45.8704 27.2572L47.42 31.15L48.9732 35.2241Z" fill="#5C0632"/>
<path d="M65.3678 16.6113C65.3678 15.2161 65.4036 13.8209 65.4406 12.498C67.9898 12.498 70.6142 12.536 72.7936 12.7553C72.6827 12.1685 72.6087 11.839 72.6087 11.4348C72.6087 11.1408 72.6827 10.6619 72.7936 10.0396C69.2472 10.2221 65.9953 10.2589 62.9283 10.2589C60.0832 10.2589 55.982 10.2221 53.063 10.0396C53.1752 10.4806 53.2479 10.9571 53.2479 11.398C53.2479 11.839 53.1752 12.3155 53.063 12.7553C54.949 12.5727 58.4955 12.498 58.8271 12.498H60.6749C60.7119 13.9312 60.7489 15.2161 60.7489 16.5746L60.7859 26.8162C60.7859 29.6078 60.5652 32.435 60.4161 35.2241C61.7462 35.0784 62.3009 35.0049 62.9283 35.0049C63.3721 35.0049 64.5543 35.1151 65.6267 35.2241C65.5145 34.1976 65.3678 32.985 65.3678 30.1958V16.6113Z" fill="#5C0632"/>
<path d="M85.9323 24.9813C84.7871 25.056 83.6789 25.1295 82.5337 25.1295C81.2394 25.1295 79.9845 25.018 78.6901 24.9813L82.4597 15.9499L85.9323 24.9813ZM90.1074 35.2241C90.7719 35.1874 91.8073 35.0036 92.8416 35.0036C93.8758 35.0036 95.1689 35.1874 95.7236 35.2241C94.0607 31.6633 91.6224 26.1192 90.2184 22.9246C88.8883 19.8415 86.6706 14.7004 84.898 9.67089C84.4912 9.78235 84.1214 9.85585 83.7159 9.85585C83.2721 9.85585 82.9023 9.78235 82.4955 9.67089C81.6104 12.683 79.4667 17.4553 75.7341 25.7517L71.4492 35.2241C71.9657 35.1519 72.4847 35.0036 73.1121 35.0036C73.7026 35.0036 74.404 35.1519 74.886 35.2241C75.4777 33.1307 76.6586 30.0843 77.8408 27.2572C79.3176 27.1849 80.7956 27.1114 82.2748 27.1114C83.8638 27.1114 85.4158 27.1849 87.0035 27.2572L88.5555 31.15L90.1074 35.2241Z" fill="#5C0632"/>
<path d="M110.604 22.7433C113.965 22.1186 117.032 20.0264 117.032 15.9499C117.032 14.4077 116.44 12.9022 115.331 11.839C113.743 10.3336 111.932 10.0396 109.531 10.0396C108.681 10.0396 104.396 10.2221 103.434 10.2221C101.549 10.2221 100.589 10.1119 99.741 10.0396C99.9986 14.7752 99.9986 15.2884 99.9986 20.0975C99.9986 27.1849 99.9616 27.9909 99.667 35.2241C100.479 35.1151 101.366 35.0036 102.215 35.0036C103.138 35.0036 103.952 35.1519 104.69 35.2241C104.69 34.2687 104.544 29.5343 104.544 28.4686V23.2553H105.431C107.426 26.0457 109.717 29.2771 111.601 32.1777C112.154 33.0229 112.967 34.3814 113.52 35.2241C114.63 35.0784 115.073 35.0036 116.513 35.0036C117.843 35.0036 118.768 35.1151 119.802 35.2241C117.475 32.3247 116.479 31.0398 113.558 26.9644C113.004 26.1927 112.191 24.9813 111.637 24.2108L110.604 22.7433ZM104.544 12.0215C105.097 11.986 106.464 11.839 107.167 11.839C108.386 11.839 109.604 12.0215 110.604 12.7553C111.895 13.7107 112.154 15.0312 112.154 16.5746C112.154 18.9607 110.787 21.6409 107.093 21.6409C106.131 21.6409 105.245 21.5662 104.544 21.5319V12.0215Z" fill="#5C0632"/>
<path d="M165.834 22.8127C165.834 23.0491 162.489 23.2708 157.715 23.457C156.872 22.9818 156.232 22.504 155.764 22.0925C161.554 22.2958 165.834 22.5469 165.834 22.8127Z" fill="#747F8A"/>
<path d="M162.404 14.8033C162.404 15.0005 159.601 15.1855 155.593 15.3447C156.168 15.0115 156.759 14.6759 157.381 14.3391C160.408 14.4775 162.404 14.6379 162.404 14.8033Z" fill="#747F8A"/>
<path d="M132.544 32.0348C130.688 32.0569 129.061 32.0654 127.79 32.0654C125.961 32.0654 124.479 31.5056 124.479 30.8111C124.479 30.1202 125.961 29.5605 127.79 29.5605C129.41 29.5605 131.604 29.5776 134.121 29.6094C133.148 31.0059 132.685 31.8449 132.642 31.8976C132.614 31.938 132.578 31.9858 132.544 32.0348Z" fill="#747F8A"/>
<path d="M133.543 33.7123C134.154 34.446 134.741 35.0634 135.526 35.7383C135.526 35.7383 135.822 36.1585 136.721 35.7983C137.635 35.4284 138.411 34.925 139.285 33.7601C141.836 33.8029 144.542 33.8593 147.206 33.9193C147.425 34.2366 147.87 34.8931 148.419 35.7028C140.993 35.8939 132.934 36.0078 128.805 36.0078C127.086 36.0078 125.69 35.4774 125.69 34.8282C125.69 34.1753 127.086 33.6486 128.805 33.6486C130.063 33.6486 131.683 33.6572 133.537 33.678C133.535 33.6951 133.543 33.7123 133.543 33.7123Z" fill="#747F8A"/>
<path d="M130.67 39.8657C129.144 39.8657 127.908 39.399 127.908 38.8233C127.908 38.2464 129.144 37.7784 130.67 37.7784C134.707 37.7784 142.984 37.9009 150.072 38.1006C150.413 38.5869 150.755 39.0707 151.079 39.5154C143.781 39.7285 134.898 39.8657 130.67 39.8657Z" fill="#747F8A"/>
<path d="M154.212 43.2119C148.259 43.4716 138.024 43.6455 133.771 43.6455C132.574 43.6455 131.601 43.2744 131.601 42.8248C131.601 42.3716 132.574 42.0029 133.771 42.0029C137.839 42.0029 147.392 42.1621 153.421 42.401C153.694 42.6913 153.96 42.9644 154.212 43.2119Z" fill="#747F8A"/>
<path d="M138.681 45.4305C142.193 45.4305 152.885 45.6939 152.885 46.0124C152.885 46.3358 142.192 46.5967 138.681 46.5967C137.997 46.5967 137.444 46.3358 137.444 46.0124C137.444 45.6939 137.997 45.4305 138.681 45.4305Z" fill="#747F8A"/>
<path d="M138.72 23.9495C134.3 24.0243 130.339 24.0659 127.79 24.0659C125.962 24.0659 124.479 23.5061 124.479 22.8128C124.479 22.1207 125.962 21.5585 127.79 21.5585C130.751 21.5585 135.616 21.6148 140.891 21.7141C140.107 22.4845 139.382 23.2342 138.72 23.9495Z" fill="#747F8A"/>
<path d="M160.402 18.3471C162.992 18.4867 164.622 18.6398 164.622 18.7991C164.622 18.9742 162.649 19.1421 159.597 19.2915C160.249 18.804 160.392 18.3789 160.402 18.3471Z" fill="#747F8A"/>
<path d="M128.806 19.9766C127.085 19.9766 125.69 19.4498 125.69 18.7982C125.69 18.1477 127.085 17.6186 128.806 17.6186C132.335 17.6186 138.737 17.7043 145.158 17.8452C144.37 18.5054 143.623 19.1583 142.918 19.7989C137.282 19.9116 131.925 19.9766 128.806 19.9766Z" fill="#747F8A"/>
<path d="M147.997 15.5806C141.431 15.746 134.319 15.8477 130.67 15.8477C129.144 15.8477 127.909 15.381 127.909 14.804C127.909 14.2271 129.144 13.7579 130.67 13.7579C134.697 13.7579 142.954 13.8829 150.032 14.0813C149.679 14.3361 149.324 14.5909 148.965 14.8579C148.637 15.1004 148.314 15.3393 147.997 15.5806Z" fill="#747F8A"/>
<path d="M133.77 11.6216C132.573 11.6216 131.601 11.2553 131.601 10.8009C131.601 10.3477 132.573 9.97895 133.77 9.97895C138.286 9.97895 149.548 10.1774 155.267 10.4603C154.902 10.698 154.538 10.9442 154.169 11.1916C148.208 11.4476 138.014 11.6216 133.77 11.6216Z" fill="#747F8A"/>
<path d="M127.449 28.0879C125.587 28.0879 124.076 27.5183 124.076 26.8115C124.076 26.1096 125.587 25.5376 127.449 25.5376C129.782 25.5376 133.275 25.5719 137.224 25.6319C136.482 26.4992 135.837 27.3027 135.285 28.023C132.141 28.0646 129.392 28.0879 127.449 28.0879Z" fill="#747F8A"/>
<path d="M137.444 7.61249C137.444 7.29034 137.998 7.02943 138.682 7.02943C142.193 7.02943 152.885 7.29034 152.885 7.61249C152.885 7.9322 142.194 8.19434 138.682 8.19434C137.998 8.19434 137.444 7.9322 137.444 7.61249Z" fill="#747F8A"/>
<path d="M166.184 25.868C166.209 26.5037 166.205 27.1345 166.173 27.7531C159.953 27.9981 154.054 28.3705 154.054 28.7894C154.054 29.201 159.821 29.5697 165.969 29.8135C165.861 30.519 165.722 31.2111 165.552 31.8897C159.49 32.1359 153.865 32.4985 153.865 32.9064C153.865 33.2996 159.117 33.6536 164.931 33.8998C164.665 34.6372 164.363 35.3538 164.024 36.0398C159.03 36.2786 154.903 36.5971 154.903 36.945C154.903 37.2696 158.509 37.5697 163.054 37.8012C162.799 38.214 162.533 38.6182 162.254 39.0004C161.958 39.4169 161.636 39.8297 161.296 40.2352C158.455 40.4495 156.505 40.6933 156.505 40.9542C156.505 41.1783 157.901 41.3878 160.054 41.5752C158.879 42.7303 157.491 43.8095 155.855 44.7515C155.855 44.7515 153.928 43.1027 152.338 41.1771C150.921 39.4598 147.913 34.9324 147.205 33.9194C146.496 32.9064 146.03 32.61 145.202 32.904C144.091 33.2947 142.801 33.4907 142.404 33.4907C142.007 33.4907 141.789 33.3376 142.454 33.0754C143.118 32.8096 145.739 31.5798 147.03 29.0381C148.48 26.1754 147.205 22.2226 147.205 22.2226C146.718 24.3356 145.611 25.1244 145.611 25.1244C145.969 23.1621 145.579 21.3835 144.604 20.1353L144.061 22.6195C144.061 22.6195 143.72 22.6023 142.878 23.3054C142.038 24.0097 141.806 25.0362 141.806 25.0362C142.468 25.3008 143.264 24.6406 143.264 24.6406C142.247 28.4219 140.789 31.5002 139.725 33.1281C138.663 34.756 137.786 35.3697 136.721 35.7997C135.822 36.1574 135.527 35.7372 135.527 35.7372C134.741 35.0635 134.155 34.4461 133.543 33.7124C133.543 33.7124 133.494 33.6267 133.659 33.6291C134.097 33.6352 134.876 32.8917 135.046 32.583C135.241 32.229 135.22 31.9583 135.122 31.9399C135.026 31.924 134.86 32.2045 134.015 32.7337C133.176 33.2616 132.79 32.8954 132.51 32.6014C132.293 32.3674 132.506 32.0784 132.642 31.8971C132.77 31.7354 137.212 23.5051 148.964 14.8583C164.366 3.52649 174.201 0.46662 174.765 0.246133C175.137 0.100367 175.745 -0.0919463 175.883 0.0489205C176.036 0.208161 176.111 0.335552 176.09 0.520516C176.07 0.704255 175.972 0.798578 175.259 1.11093C169.347 3.69921 162.445 8.0134 158.524 10.5245C153.702 12.8592 149.097 16.1935 148.93 16.2731C148.559 16.5022 148.832 16.8353 149.057 16.6957C157.2 11.3134 166.747 7.64715 177.298 4.64363C177.802 4.50154 178.078 4.50153 178.162 4.61178C178.257 4.73427 178.298 4.87391 178.312 5.02825C178.326 5.22057 178.166 5.32224 177.733 5.49005C166.398 9.67441 158.044 13.5611 152.671 17.1538C152.671 17.1538 152.115 17.487 152.108 17.8729C152.105 18.0198 152.406 18.037 152.406 18.037C155.096 18.0848 158.692 18.2416 160.402 18.3408C160.402 18.3408 160.158 19.2019 158.52 19.8952C157.255 20.4317 156.084 20.346 154.926 20.3558C154.668 20.3509 154.45 20.6093 154.656 20.885C154.759 21.0221 157.225 24.9664 166.184 25.868Z" fill="#5C0632"/>
<path d="M84.0474 46.4943H82.5287C82.5287 46.4943 82.324 45.5658 82.8738 45.2105C83.4261 44.8504 84.0474 44.5736 84.0474 44.5736V46.4943ZM91.2537 43.0179C91.2537 43.0179 90.3305 43.5446 89.7462 44.0615C89.1655 44.5736 89.8657 44.7683 89.8657 44.7683V46.4943H85.4588V40.4541C85.4588 40.4541 83.8526 41.9216 83.7022 42.1164C83.5469 42.3246 84.0843 42.5132 84.0843 42.5132L83.9931 43.0853C83.9931 43.0853 83.3533 43.4148 82.5767 43.9366C81.8051 44.4523 81.2331 45.1101 81.2331 45.5658C81.2331 46.0227 81.0383 47.816 81.0383 47.816H91.2537V43.0179ZM82.1305 40.8094C82.6334 40.8094 82.9885 40.6121 82.9885 40.214C82.9885 39.8147 82.753 39.5367 82.1305 39.5367C81.577 39.5367 81.4291 39.7767 81.4291 40.214C81.4291 40.655 81.6214 40.8094 82.1305 40.8094ZM84.0091 40.8094C84.517 40.8094 84.8609 40.6121 84.8609 40.214C84.8609 39.8147 84.628 39.5367 84.0091 39.5367C83.4532 39.5367 83.3077 39.7767 83.3077 40.214C83.3077 40.655 83.4988 40.8094 84.0091 40.8094ZM86.8555 48.3353C86.3057 48.3353 86.1541 48.5693 86.1541 49.009C86.1541 49.4451 86.3488 49.6043 86.8555 49.6043C87.3584 49.6043 87.7147 49.4059 87.7147 49.009C87.7147 48.6085 87.4829 48.3353 86.8555 48.3353ZM88.8081 48.3353C88.2583 48.3353 88.1079 48.5693 88.1079 49.009C88.1079 49.4451 88.3076 49.6043 88.8081 49.6043C89.3184 49.6043 89.6685 49.4059 89.6685 49.009C89.6685 48.6085 89.438 48.3353 88.8081 48.3353ZM110.82 40.6905C111.327 40.6905 111.682 40.4982 111.682 40.1001C111.682 39.7045 111.448 39.4215 110.82 39.4215C110.272 39.4215 110.123 39.6616 110.123 40.1001C110.123 40.5387 110.319 40.6905 110.82 40.6905ZM112.772 40.6905C113.275 40.6905 113.627 40.4982 113.627 40.1001C113.627 39.7045 113.393 39.4215 112.772 39.4215C112.22 39.4215 112.073 39.6616 112.073 40.1001C112.073 40.5387 112.261 40.6905 112.772 40.6905ZM118.159 40.8547C117.884 41.0911 117.964 41.3741 118.313 41.3349V47.8245H119.76V39.7461C119.76 39.7461 118.429 40.6195 118.159 40.8547ZM112.343 44.4939H111.406C111.406 43.9832 112.343 43.7002 112.343 43.7002V44.4939ZM106.176 45.5658C106.176 45.8009 106.165 46.1843 106.153 46.4943H97.9769V45.066C98.1902 44.516 98.5501 44.4523 99.1073 44.4523H105.085C106.375 44.4523 106.176 45.1272 106.176 45.5658ZM115.738 41.3275V46.4943H113.791V41.8028C113.791 41.8028 113.393 41.9547 112.847 42.1948C112.306 42.4385 110.348 43.2286 110.348 44.2967V45.5315H112.343V46.4943H107.612C107.615 46.2676 107.62 45.9345 107.62 45.4457C107.62 43.906 106.3 43.0681 105.125 43.0681H99.6559C98.698 43.0681 98.2358 43.2984 97.9769 43.5618V39.5844C97.9769 39.5844 97.1227 40.181 96.4952 40.655C95.869 41.1291 96.4952 41.4475 96.4952 41.4475V46.4943H94.7029L94.6646 42.1629C94.6646 42.1629 93.4171 43.0681 93.0597 43.3437C92.7108 43.6181 92.9043 43.8631 93.2951 43.8631C93.2951 43.8631 93.2236 47.0614 93.2236 47.816C93.2236 48.5754 92.5912 49.4427 91.2636 49.0482C91.2636 49.0482 90.842 49.1291 91.1921 49.4451C91.541 49.7599 91.9626 50 92.4347 50C92.9043 50 94.6252 49.6778 94.6252 47.816H117.18V39.7412C117.18 39.7412 115.852 40.6121 115.579 40.8486C115.304 41.085 115.384 41.3692 115.738 41.3275Z" fill="#5C0632"/>
</g>
<defs>
<clipPath id="clip0_14_10">
<rect width="178.313" height="50" fill="white"/>
</clipPath>
</defs>
</svg>
