<svg width="186" height="50" viewBox="0 0 186 50" fill="none" xmlns="http://www.w3.org/2000/svg">
<g clip-path="url(#clip0_14_168)">
<path d="M76.2941 18.9538C75.8268 17.4422 75.8268 15.2329 73.2564 15.3491C70.8028 15.3491 69.5176 17.0933 69.5176 19.0701C69.5176 22.2096 77.5793 22.9073 78.2804 29.3026C78.6309 33.1398 74.8921 39.5352 67.2978 39.6515C64.26 39.6515 60.4044 38.2561 60.2876 31.8608L65.7789 30.698C65.7789 32.3259 65.6621 35.2329 68.8166 35.2329C71.1534 35.2329 72.4386 33.0235 72.6722 31.2794C73.1396 27.2096 64.0264 26.0468 64.1432 20.9305C64.1432 16.1631 67.2978 11.1631 74.7753 11.1631C82.2528 11.2794 81.2013 17.791 81.2013 17.791L76.2941 18.9538Z" fill="#E01F27"/>
<path fill-rule="evenodd" clip-rule="evenodd" d="M87.5104 23.0234L84.5894 34.5351C85.2905 35.5816 86.1083 36.0467 87.043 36.0467C87.744 36.0467 88.3282 35.8141 88.9124 35.1165C89.4966 34.4188 90.0807 33.0234 90.6649 31.0467L91.8333 26.6281C92.3006 24.6513 92.4175 23.256 92.1838 22.5583C91.9501 21.8606 91.4828 21.5118 90.7818 21.6281C89.7302 21.5118 88.6787 22.0932 87.5104 23.0234ZM83.8884 18.3723H88.3282L87.744 20.9304H87.8609C88.445 20.2327 89.3797 19.5351 90.4313 18.9537C91.4828 18.3723 92.5343 18.0234 93.7027 18.0234C95.572 18.0234 96.7404 18.7211 97.2077 20.1165C97.6751 21.5118 97.5583 23.6048 96.8572 26.2793L95.4552 31.3955C94.7542 34.0699 93.8195 36.163 92.6511 37.5583C91.4828 38.9537 89.9639 39.6513 88.0945 39.6513C87.5104 39.6513 86.8093 39.5351 86.2252 39.1862C85.641 38.8374 84.8231 38.256 83.8884 37.442L80.9675 49.0699H76.1772L83.8884 18.3723Z" fill="#E01F27"/>
<path fill-rule="evenodd" clip-rule="evenodd" d="M125.365 25.5816H120.575L120.809 24.6513C121.042 23.8374 120.925 23.256 120.458 22.7909C120.108 22.3258 119.407 22.2095 118.589 22.2095C117.771 22.2095 117.07 22.442 116.369 22.7909C115.785 23.256 115.317 23.8374 115.084 24.6513L112.981 32.9072C112.747 33.7211 112.864 34.3025 113.331 34.7676C113.682 35.1165 114.383 35.349 115.2 35.349C116.018 35.349 116.719 35.1165 117.42 34.7676C118.005 34.3025 118.472 33.7211 118.706 32.9072L119.056 31.6281H123.846V31.7444C123.145 34.5351 121.977 36.5118 120.341 37.7909C118.706 39.0699 116.719 39.6513 114.266 39.6513C111.812 39.6513 110.177 39.0699 109.125 37.7909C108.073 36.5118 107.957 34.5351 108.658 31.7444L110.177 25.9304C110.878 23.1397 112.046 21.163 113.682 19.8839C115.317 18.6048 117.304 18.0234 119.757 18.0234C122.094 18.0234 123.73 18.6048 124.781 19.8839C125.833 21.163 125.949 22.9072 125.365 25.5816Z" fill="#E01F27"/>
<path fill-rule="evenodd" clip-rule="evenodd" d="M142.423 30.0002H132.025L131.324 32.7909C131.09 33.8374 131.09 34.5351 131.557 35.1165C131.908 35.5816 132.609 35.8141 133.427 35.8141C134.478 35.8141 135.179 35.4653 135.764 35.0002C136.348 34.4188 136.698 33.7211 136.932 32.9072H141.722C141.021 35.1165 139.97 36.7444 138.334 37.9072C136.815 39.0699 134.829 39.6513 132.375 39.7676C130.039 39.7676 128.403 39.0699 127.351 37.7909C126.3 36.5118 126.066 34.6513 126.65 32.3258L128.403 25.4653C128.987 23.1397 130.155 21.3955 131.908 20.0002C133.544 18.7211 135.647 18.0234 137.867 18.0234C140.087 18.0234 141.722 18.7211 142.774 20.0002C143.825 21.2793 144.059 23.0234 143.592 25.1165L142.423 30.0002ZM133.076 26.0467H138.684L138.918 24.8839C139.152 23.9537 139.152 23.256 138.801 22.6746C138.451 22.0932 137.867 21.8606 136.932 21.8606C135.997 21.8606 135.179 22.0932 134.595 22.6746C134.011 23.256 133.661 23.9537 133.427 24.8839L133.076 26.0467Z" fill="#E01F27"/>
<path fill-rule="evenodd" clip-rule="evenodd" d="M170.932 30.0002H160.533L159.832 32.7909C159.598 33.8374 159.715 34.5351 160.066 35.1165C160.416 35.5816 161.117 35.8141 161.935 35.8141C162.987 35.8141 163.688 35.4653 164.272 35.0002C164.856 34.4188 165.207 33.7211 165.44 32.9072H170.231C169.529 35.1165 168.478 36.7444 166.842 37.9072C165.323 39.0699 163.337 39.6513 160.884 39.7676C158.547 39.7676 156.911 39.0699 155.86 37.7909C154.808 36.5118 154.574 34.6513 155.159 32.3258L156.911 25.4653C157.495 23.1397 158.664 21.3955 160.416 20.0002C162.052 18.7211 164.155 18.0234 166.375 18.0234C168.595 18.0234 170.231 18.7211 171.282 20.0002C172.334 21.2793 172.567 23.0234 172.1 25.1165L170.932 30.0002ZM161.585 26.0467H167.193L167.426 24.8839C167.66 23.9537 167.66 23.256 167.31 22.6746C166.959 22.0932 166.375 21.8606 165.44 21.8606C164.506 21.8606 163.688 22.0932 163.104 22.6746C162.519 23.256 162.052 23.9537 161.818 24.8839L161.585 26.0467Z" fill="#E01F27"/>
<path fill-rule="evenodd" clip-rule="evenodd" d="M176.422 23.2561H173.969L174.904 19.3026H177.357L179.226 12.0933H184.017L182.147 19.3026H185.185L184.134 23.2561H181.096L178.409 33.9537C178.292 34.4188 178.409 34.884 178.759 35.1165C179.11 35.3491 179.577 35.4654 180.278 35.4654C180.629 35.4654 180.979 35.4654 181.213 35.4654L180.161 39.5351C179.226 39.6514 178.292 39.7677 177.357 39.7677C175.838 39.7677 174.553 39.4188 173.852 38.8375C173.034 38.1398 172.917 37.0933 173.268 35.5816L176.422 23.2561Z" fill="#E01F27"/>
<path d="M146.396 32.9072L149.784 19.5351L151.653 12.0933H156.444L154.574 19.5351L148.849 41.8607C148.148 44.6514 146.98 46.6281 145.344 47.9072C143.709 49.1863 141.722 49.7677 139.269 49.7677C136.815 49.7677 135.179 49.1863 134.128 47.9072C133.076 46.6281 132.96 44.6514 133.661 41.8607H138.451L138.1 43.1398C137.867 43.9537 137.984 44.5351 138.451 45.0002C138.801 45.4654 139.502 45.5816 140.32 45.5816C141.138 45.5816 141.839 45.3491 142.54 45.0002C143.124 44.5351 143.592 43.9537 143.825 43.1398L144.293 41.3956L146.396 32.9072Z" fill="#E01F27"/>
<path fill-rule="evenodd" clip-rule="evenodd" d="M102.699 18.3721H107.489L102.232 39.3023H97.4414L102.699 18.3721Z" fill="#E01F27"/>
<path fill-rule="evenodd" clip-rule="evenodd" d="M108.073 16.3957H103.283L104.335 11.9771H109.125L108.073 16.3957Z" fill="#E01F27"/>
<path d="M48.4872 28.6047C47.0852 30 45.099 30.3489 44.2811 29.5349C43.4632 28.721 43.9306 26.7442 45.3326 25.3489C46.7347 23.9535 48.7209 23.4884 49.4219 24.3024C50.3566 25.1163 49.8892 27.2094 48.4872 28.6047Z" fill="#FCD20A"/>
<path d="M54.329 28.3724C53.2774 29.5352 51.8754 29.884 51.2912 29.3027C50.5902 28.7213 50.9407 27.2096 51.8754 26.1631C52.9269 25.1166 54.329 24.5352 54.9131 25.1166C55.6142 25.698 55.2637 27.2096 54.329 28.3724Z" fill="#FCD800"/>
<path d="M30.2607 21.2792C28.3914 20.9304 25.7041 21.5118 23.9516 23.256C22.0822 25.1165 20.6802 27.6746 21.3812 29.7676C21.6149 30.5816 22.9001 31.5118 23.9516 31.5118C25.9378 31.6281 28.1577 30.6979 29.6765 29.3025C31.3123 27.7909 32.2469 25.5816 32.2469 24.0699C32.2469 23.7211 32.2469 23.4885 32.1301 23.1397C31.8964 22.3258 31.0786 21.3955 30.2607 21.2792Z" fill="#F8A81B"/>
<path d="M40.6591 28.7211C38.7897 30.5815 35.9856 31.1629 34.8173 30.1164C33.7657 29.0699 34.3499 26.3955 36.3361 24.535C38.2055 22.6745 40.8927 22.3257 41.9443 23.3722C43.1126 24.535 42.5285 26.9769 40.6591 28.7211Z" fill="#F9BB16"/>
<path d="M53.1606 19.8837C51.9922 21.5116 50.1229 22.093 49.1882 21.5116C48.2535 20.814 48.2535 18.8372 49.4218 17.3256C50.5902 15.6977 52.4596 15 53.3943 15.5814C54.329 16.1628 54.329 18.2558 53.1606 19.8837Z" fill="#FCD20A"/>
<path d="M57.7172 21.6281C56.7825 22.9071 55.3805 23.4885 54.6795 23.0234C53.8616 22.442 53.9785 20.9304 54.9132 19.6513C55.8479 18.3722 57.2499 17.6746 58.0677 18.1397C58.7688 18.6048 58.6519 20.349 57.7172 21.6281Z" fill="#FCD800"/>
<path d="M37.9717 14.8836C35.635 17.6743 32.0131 18.8371 30.4942 17.4417C28.7417 15.6975 28.6248 12.9069 31.3121 9.65104C34.1161 6.04638 37.2707 5.93011 39.0233 7.32545C40.5421 8.48825 40.3085 12.0929 37.9717 14.8836Z" fill="#F9B517"/>
<path d="M46.8513 17.6745C45.0987 20.5815 42.4115 20.5815 41.2432 19.6512C40.0748 18.721 40.4253 15.9303 42.061 13.9536C43.8135 11.9768 46.5008 11.1629 47.5523 12.2094C48.487 13.1396 48.1365 15.3489 46.8513 17.6745Z" fill="#FAC113"/>
<path d="M27.8072 0.465216C21.6148 -2.09292 15.4225 6.16289 15.8899 10.9303C16.2404 14.535 18.5771 15.9303 21.8485 15.4652H21.9654C25.3536 15.0001 28.2745 12.2094 29.5597 9.76754C30.027 8.95359 30.3776 7.90708 30.4944 6.86056C30.4944 6.51173 30.6112 6.04661 30.6112 5.58149C30.6112 3.37219 29.7934 1.27917 27.8072 0.465216Z" fill="#F7A11C"/>
<path d="M14.8384 19.0701C13.4364 19.3026 12.0343 19.884 10.866 20.698C8.87974 21.8608 7.24404 23.3724 6.30935 25.2329C5.14099 27.4422 5.25783 29.5352 6.30935 30.9305C6.7767 31.7445 7.36088 32.0933 8.06189 32.4422C8.4124 32.5584 8.76291 32.6747 9.11342 32.791C10.1649 33.0236 11.3333 33.0236 12.7353 32.6747C16.5909 31.6282 21.1475 27.4422 21.0307 23.3724C21.0307 19.5352 18.1098 18.3724 14.8384 19.0701Z" fill="#F7991D"/>
<path d="M53.1606 34.5348C52.1091 35.5813 50.707 35.9301 50.006 35.3487C49.4218 34.7673 49.7724 33.2557 50.8239 32.2092C51.8754 31.1627 53.3943 30.6975 53.9785 31.3952C54.6795 31.9766 54.2121 33.4882 53.1606 34.5348Z" fill="#FCD800"/>
<path d="M46.3841 36.5119C44.8652 37.791 42.9959 38.1398 42.2948 37.3258C41.5938 36.5119 42.178 34.7677 43.58 33.4886C45.0989 32.2096 46.8515 31.8607 47.5525 32.6747C48.4872 33.4886 47.903 35.2328 46.3841 36.5119Z" fill="#FCD20A"/>
<path d="M37.3877 39.3026C35.4015 41.0468 32.9479 41.3956 31.8964 40.3491C30.8449 39.1863 31.6627 36.8607 33.6489 35.2328C35.6351 33.4886 37.9719 33.1398 39.0234 34.1863C40.0749 35.2328 39.3739 37.5584 37.3877 39.3026Z" fill="#F9BD15"/>
<path d="M26.2882 35.4653C22.3158 34.3025 16.0067 39.4188 16.9414 43.3723C17.175 44.3025 18.4602 45.1165 19.3949 45.2328C23.3673 45.5816 27.8071 41.3955 28.0408 38.3723C28.0408 38.0235 28.0408 37.6746 28.0408 37.3258C27.8071 36.3955 26.9893 35.6979 26.2882 35.4653Z" fill="#F9A81A"/>
<path d="M15.5393 39.8836C14.8383 36.8604 11.0995 37.0929 8.76281 37.7906C7.82812 38.0232 6.89343 38.372 6.07558 38.8371C4.79038 39.4185 3.73886 40.2325 2.80417 41.0464C1.63581 42.2092 -0.350404 44.6511 0.000104214 47.0929C0.350612 49.6511 3.62202 50.3487 6.54292 49.7673C10.048 48.9534 16.7077 44.5348 15.5393 39.8836Z" fill="#F79A1D"/>
</g>
<defs>
<clipPath id="clip0_14_168">
<rect width="185.185" height="50" fill="white"/>
</clipPath>
</defs>
</svg>
